<svg width="45" height="46" viewBox="0 0 45 46" fill="none" xmlns="http://www.w3.org/2000/svg">
<g clip-path="url(#clip0)">
<path d="M3.6052 20.0603C3.83941 20.1561 4.11103 20.1561 4.34524 20.0412L11.6611 16.6419C12.1295 16.4121 12.3262 15.8375 12.1013 15.3588C11.8859 14.8992 11.352 14.6885 10.893 14.8992L5.76904 17.2835C8.2139 9.80501 15.0239 4.80663 22.8644 4.80663C31.0795 4.80663 38.2642 10.4179 40.3343 18.4516C40.4654 18.9591 40.9806 19.2656 41.4771 19.1315C41.9735 18.9974 42.2733 18.4708 42.1421 17.9633C39.8565 9.09646 31.9318 2.89157 22.8643 2.89157C14.2183 2.89157 6.69631 8.40703 3.97983 16.6611L1.82539 11.1552C1.66617 10.6573 1.13224 10.3796 0.64511 10.5424C0.157982 10.7051 -0.11364 11.2509 0.0455749 11.7489C0.0549715 11.7872 0.0736768 11.8255 0.0923821 11.8638L3.08057 19.5241C3.17427 19.7635 3.36159 19.9646 3.6052 20.0603Z" fill="white"/>
<path d="M44.943 34.1936C44.9336 34.1745 44.9243 34.1553 44.9243 34.1362L41.9361 26.4759C41.8424 26.2365 41.6551 26.0354 41.4116 25.9397C41.1774 25.8439 40.9057 25.8535 40.6715 25.9588L33.3557 29.3581C32.8779 29.5592 32.6531 30.1241 32.8498 30.6125C33.0465 31.1008 33.5992 31.3306 34.0769 31.1295C34.0956 31.1199 34.1144 31.1104 34.1331 31.1008L39.257 28.7165C36.7935 36.195 29.974 41.1933 22.143 41.1933C13.9279 41.1933 6.74321 35.5821 4.67307 27.5483C4.54196 27.0409 4.02673 26.7344 3.53029 26.8685C3.03386 27.0025 2.73405 27.5292 2.86525 28.0367C5.1415 36.9131 13.0756 43.1084 22.1431 43.1084C30.7891 43.1084 38.3017 37.593 41.0275 29.3389L43.182 34.8447C43.36 35.3427 43.8939 35.6012 44.381 35.4193C44.868 35.2374 45.1209 34.6916 44.943 34.1936Z" fill="white"/>
</g>
<defs>
<clipPath id="clip0">
<rect width="45" height="46" fill="white"/>
</clipPath>
</defs>
</svg>
